<svg width="42" height="33" viewBox="0 0 42 33" fill="none" xmlns="http://www.w3.org/2000/svg">
<path d="M6.36543 32.3571C2.69078 32.3571 0.785399 30.4687 0.785399 26.8451V6.12414C0.785399 2.48351 2.69078 0.612163 6.36543 0.612163H35.5075C39.1821 0.612163 41.0875 2.50053 41.0875 6.12414V26.8451C41.0875 30.4687 39.1821 32.3571 35.5075 32.3571H6.36543ZM8.18574 14.1029C6.65464 15.0216 7.94757 17.3693 9.63179 16.3145L14.6334 13.1672C15.7222 12.5038 15.6712 10.8706 14.6334 10.2071L9.63179 7.09384C7.96459 6.02207 6.63763 8.35275 8.18574 9.28843L12.1666 11.6872L8.18574 14.1029ZM15.6201 16.1954C15.6201 16.8929 16.1815 17.4713 16.896 17.4713H23.5138C24.2453 17.4713 24.7897 16.8929 24.7897 16.1954C24.7897 15.4809 24.2453 14.9195 23.5138 14.9195H16.896C16.1815 14.9195 15.6201 15.4809 15.6201 16.1954Z" fill="#F2F2FA"/>
</svg>
