<svg width="47" height="42" viewBox="0 0 47 42" fill="none" xmlns="http://www.w3.org/2000/svg">
<path d="M44.8688 9.22135C46.0426 9.74873 46.6551 10.7184 46.6551 11.7222C46.6551 12.7259 46.0426 13.6786 44.8688 14.223L28.2478 21.8275C26.4615 22.644 24.9984 23.0183 23.5694 22.9843C22.1404 23.0183 20.6943 22.6611 18.908 21.8275L11.5247 18.459L21.9022 13.6275C22.4296 13.7806 23.025 13.8657 23.6374 13.8657C25.5768 13.8657 27.4312 12.9811 27.4312 11.7222C27.4312 10.4973 25.5598 9.61263 23.6374 9.61263C21.698 9.61263 19.8097 10.4973 19.8097 11.7222C19.8097 11.8412 19.8437 11.9603 19.9118 12.0624L8.9048 17.2001L2.28702 14.223C1.11317 13.6786 0.500731 12.7259 0.500731 11.7222C0.500731 10.7184 1.11317 9.74873 2.28702 9.22135L18.908 1.61686C20.6943 0.817281 22.1404 0.443011 23.5694 0.460023C24.9984 0.443011 26.4615 0.817281 28.2478 1.61686L44.8688 9.22135ZM11.4737 21.147L17.8703 24.0901C19.9288 25.0258 21.8001 25.4851 23.5694 25.4681C25.3557 25.4851 27.227 25.0258 29.2855 24.0901L40.3775 18.9864V24.3963C40.3775 29.6871 33.5726 33.9912 23.5694 33.9912C18.6018 33.9912 14.4168 32.9195 11.4737 31.1502V21.147ZM6.76125 19.0034L8.97285 20.0242V29.1427C7.56083 27.6457 6.76125 25.8764 6.76125 24.3963V19.0034ZM7.49278 35.1991C7.49278 34.0763 8.05419 33.2597 8.97285 32.9535V29.1427C9.65334 29.8913 10.4869 30.5718 11.4737 31.1502V32.9535C12.3753 33.2767 12.9367 34.0933 12.9367 35.1991V39.6223C12.9367 41.0513 12.001 41.987 10.555 41.987H9.8745C8.44547 41.987 7.49278 41.0513 7.49278 39.6223V35.1991Z" fill="#121212"/>
</svg>
