<svg width="27" height="26" viewBox="0 0 27 26" fill="none" xmlns="http://www.w3.org/2000/svg">
<path d="M13.5066 25.8105C6.52417 25.8105 0.774658 20.061 0.774658 13.0786C0.774658 6.1084 6.52417 0.34668 13.4944 0.34668C20.4768 0.34668 26.2385 6.1084 26.2385 13.0786C26.2385 20.061 20.489 25.8105 13.5066 25.8105ZM5.65747 12.1875C5.65747 12.5659 5.93823 12.8833 6.38989 12.8833C6.60962 12.8833 6.79272 12.7612 6.97583 12.6147L13.177 7.41455C13.4089 7.21924 13.6409 7.24365 13.8606 7.41455L20.0496 12.6147C20.2449 12.7612 20.428 12.8833 20.6477 12.8833C21.0627 12.8833 21.3679 12.6147 21.3679 12.2119C21.3679 11.9678 21.2825 11.7725 21.0994 11.6138L19.2927 10.1001V7.46338C19.2927 7.17041 19.0974 6.9873 18.8044 6.9873H17.8645C17.5715 6.9873 17.3762 7.17041 17.3762 7.46338V8.48877L14.5442 6.12061C13.9338 5.5957 13.116 5.5957 12.5056 6.12061L5.93823 11.6138C5.75513 11.7725 5.65747 11.9922 5.65747 12.1875ZM7.76929 17.9126C7.76929 18.8281 8.36743 19.4019 9.33179 19.4019H17.6936C18.658 19.4019 19.2561 18.8281 19.2561 17.9126V13.2007L13.9094 8.7085C13.6531 8.48877 13.3723 8.50098 13.116 8.7085L7.76929 13.1885V17.9126ZM11.8464 17.998V14.1162C11.8464 13.811 12.0417 13.6157 12.3469 13.6157H14.6907C15.0081 13.6157 15.1912 13.811 15.1912 14.1162V17.998H11.8464Z" fill="#FFC6A1"/>
</svg>
