<svg width="40" height="37" viewBox="0 0 40 37" fill="none" xmlns="http://www.w3.org/2000/svg">
<path d="M7.31439 36.5137C5.95341 36.5137 5.5281 35.4419 6.27664 34.4892C6.95714 33.6216 8.60733 31.7673 9.59404 30.1341C9.76416 29.8279 9.6791 29.5727 9.35587 29.4026C3.79285 26.3914 0.492465 21.5089 0.492465 16.0309C0.492465 7.25256 9.25379 0.192457 20.1927 0.192457C31.1316 0.192457 39.8929 7.25256 39.8929 16.0309C39.8929 25.1325 31.1826 31.8693 18.8998 31.8693C18.7126 31.8693 18.5085 31.8523 18.3043 31.8523C18.0321 31.8353 17.7599 31.9204 17.4367 32.1585C14.3745 34.3191 9.38989 36.5137 7.31439 36.5137Z" fill="#F2F2FA"/>
</svg>
