<svg width="27" height="26" viewBox="0 0 27 26" fill="none" xmlns="http://www.w3.org/2000/svg">
<path d="M13.5066 25.835C6.52417 25.835 0.774658 20.0732 0.774658 13.103C0.774658 6.12061 6.52417 0.358887 13.4944 0.358887C20.4768 0.358887 26.2385 6.12061 26.2385 13.103C26.2385 20.0732 20.489 25.835 13.5066 25.835ZM13.5066 13.6157C13.6775 13.6157 13.8484 13.5425 14.0315 13.3838L19.9885 8.11035C19.6467 7.92725 19.2927 7.854 18.8289 7.854H8.18433C7.70825 7.854 7.35425 7.92725 7.03687 8.11035L12.9817 13.3838C13.1648 13.5425 13.3357 13.6157 13.5066 13.6157ZM6.34106 17.2412L10.7234 12.8467L6.32886 8.96484C6.25562 9.12354 6.19458 9.42871 6.19458 9.81934V16.3745C6.19458 16.7407 6.24341 17.0093 6.34106 17.2412ZM20.6843 17.2412C20.7698 17.0093 20.8186 16.7285 20.8186 16.3745V9.81934C20.8186 9.42871 20.7576 9.12354 20.6843 8.96484L16.2898 12.8467L20.6843 17.2412ZM8.05005 18.3521H18.9509C19.3782 18.3521 19.7322 18.2544 19.9763 18.1079L15.4475 13.5913L14.6785 14.2749C14.3 14.6167 13.9216 14.7632 13.5066 14.7632C13.0916 14.7632 12.7131 14.6167 12.3347 14.2749L11.5535 13.5913L7.02466 18.1079C7.28101 18.2544 7.6228 18.3521 8.05005 18.3521Z" fill="#FFC6A1"/>
</svg>
