<svg width="42" height="30" viewBox="0 0 42 30" fill="none" xmlns="http://www.w3.org/2000/svg">
<path d="M6.50776 29.978C2.83311 29.978 0.927733 28.0896 0.927733 24.449V14.9391C0.927733 13.0848 1.19993 12.2682 2.05054 11.1283L7.6646 3.64293C9.63803 1.02304 10.6758 0.291514 13.755 0.291514H28.4026C31.4818 0.291514 32.5196 1.02304 34.493 3.64293L40.09 11.1283C40.9576 12.2682 41.2298 13.0848 41.2298 14.9391V24.449C41.2298 28.0896 39.3245 29.978 35.6498 29.978H6.50776ZM21.0703 19.5664C23.6562 19.5664 25.2723 17.508 25.2723 15.3814V15.2453C25.2723 14.4798 25.7317 13.7312 26.7014 13.7312H37.0108C37.6232 13.7312 37.7253 13.2209 37.4361 12.8126L31.2436 4.45952C30.5121 3.4558 29.5934 3.08153 28.4366 3.08153H13.704C12.5471 3.08153 11.6455 3.4558 10.9139 4.45952L4.70446 12.8126C4.41525 13.2209 4.51733 13.7312 5.12977 13.7312H15.4392C16.4089 13.7312 16.8853 14.4798 16.8853 15.2453V15.3814C16.8853 17.508 18.5014 19.5664 21.0703 19.5664ZM28.1474 5.46325C28.6237 5.46325 28.964 5.82051 28.964 6.29685C28.964 6.75618 28.6237 7.13045 28.1474 7.13045H14.0102C13.5338 7.13045 13.1766 6.75618 13.1766 6.29685C13.1766 5.82051 13.5338 5.46325 14.0102 5.46325H28.1474ZM30.359 9.20595C30.8523 9.20595 31.2266 9.61425 31.2266 10.0906C31.2266 10.5669 30.8523 10.9582 30.359 10.9582H11.7816C11.3052 10.9582 10.931 10.5669 10.931 10.0906C10.931 9.61425 11.3052 9.20595 11.7816 9.20595H30.359Z" fill="#F2F2FA"/>
</svg>
