<svg width="27" height="26" viewBox="0 0 27 26" fill="none" xmlns="http://www.w3.org/2000/svg">
<path d="M13.5066 25.835C6.52417 25.835 0.774658 20.0732 0.774658 13.103C0.774658 6.12061 6.52417 0.358887 13.4944 0.358887C20.4768 0.358887 26.2385 6.12061 26.2385 13.103C26.2385 20.0732 20.489 25.835 13.5066 25.835ZM10.4792 16.0449C13.4333 19.0112 17.1565 20.8667 19.366 18.6694C19.4514 18.5718 19.5125 18.4863 19.5857 18.4009C20.1106 17.7539 20.3059 16.8994 19.5491 16.3501C18.9143 15.8984 18.2673 15.4468 17.3396 14.7876C16.5828 14.2627 16.1067 14.4092 15.5452 14.9585L15.0569 15.4468C14.9104 15.5811 14.6541 15.5688 14.4832 15.459C14.0437 15.1904 13.3113 14.6045 12.6155 13.9087C11.9319 13.2251 11.3093 12.4561 11.0652 12.0288C10.9797 11.9067 10.9187 11.6748 11.0896 11.5039L11.5657 10.979C12.1394 10.3809 12.2737 9.95361 11.7366 9.18457L10.1985 7.01172C9.67358 6.2793 8.91675 6.37695 8.05005 7.02393C7.97681 7.07275 7.92798 7.12158 7.86694 7.17041C5.66968 9.37988 7.52515 13.103 10.4792 16.0449Z" fill="#FFC6A1"/>
</svg>
