<svg width="53" height="53" viewBox="0 0 53 53" fill="none" xmlns="http://www.w3.org/2000/svg">
<path d="M26.6999 5.16487C24.9848 5.173 23.3476 5.31884 21.9062 5.57397C17.6609 6.32391 16.8906 7.89366 16.8906 10.789V14.6122H26.9222V15.8866H13.1255C10.2103 15.8866 7.65738 17.6388 6.85869 20.9733C5.93732 24.7941 5.89669 27.1788 6.85869 31.1685C7.57166 34.1386 9.27466 36.2544 12.1903 36.2544H15.6398V31.6711C15.6398 28.3597 18.5043 25.4392 21.9066 25.4392H31.9268C34.7161 25.4392 36.9423 23.1423 36.9423 20.3416V10.7894C36.9423 8.07037 34.6486 6.02816 31.9268 5.57437C30.2026 5.28756 28.4147 5.15716 26.6999 5.16487V5.16487ZM21.2749 8.23978C22.3108 8.23978 23.1574 9.09981 23.1574 10.1577C23.1574 11.2111 22.3112 12.063 21.2749 12.063C20.2349 12.063 19.3927 11.2111 19.3927 10.1577C19.3923 9.09981 20.2349 8.23978 21.2749 8.23978V8.23978Z" fill="#FF9502"/>
<path d="M38.1932 15.8866V20.3416C38.1932 23.7947 35.2649 26.7014 31.9263 26.7014H21.9062C19.1616 26.7014 16.8906 29.0508 16.8906 31.7995V41.3524C16.8906 44.0706 19.2542 45.67 21.9062 46.4496C25.0814 47.3828 28.1267 47.5518 31.9263 46.4496C34.4516 45.718 36.9419 44.2465 36.9419 41.3524V37.5288H26.9222V36.254H41.9583C44.8735 36.254 45.9607 34.2207 46.9747 31.1681C48.022 28.0258 47.9769 25.0037 46.9747 20.9729C46.254 18.0702 44.878 15.8862 41.9583 15.8862H38.1932V15.8866ZM32.5573 40.0776C33.5977 40.0776 34.4398 40.9295 34.4398 41.9837C34.4398 43.0408 33.5973 43.9008 32.5573 43.9008C31.5213 43.9008 30.6751 43.0408 30.6751 41.9837C30.6751 40.9295 31.5213 40.0776 32.5573 40.0776V40.0776Z" fill="#FFC6A1"/>
<path opacity="0.444" d="M40.4791 48.7754C40.4791 50.2147 34.4601 51.3819 27.0359 51.3819C19.6113 51.3819 13.5923 50.2147 13.5923 48.7754C13.5923 47.3356 19.6109 46.1685 27.0359 46.1685C34.4601 46.1685 40.4791 47.3352 40.4791 48.7754Z" fill="url(#paint0_radial_8_1795)"/>
<defs>
<radialGradient id="paint0_radial_8_1795" cx="0" cy="0" r="1" gradientUnits="userSpaceOnUse" gradientTransform="translate(26.9816 48.7007) rotate(-90) scale(2.60744 11.4619)">
<stop stop-color="#B8B8B8" stop-opacity="0.498"/>
<stop offset="1" stop-color="#7F7F7F" stop-opacity="0"/>
</radialGradient>
</defs>
</svg>
