<svg width="44" height="37" viewBox="0 0 44 37" fill="none" xmlns="http://www.w3.org/2000/svg">
<path d="M5.31521 30.568C2.30403 30.568 0.500731 28.7647 0.500731 25.7366V5.06663C0.500731 2.05545 2.30403 0.252151 5.31521 0.252151H38.268C41.2962 0.252151 43.0995 2.05545 43.0995 5.06663V25.7366C43.0995 28.7647 41.2962 30.568 38.268 30.568H27.6523V33.239H27.7034C28.7241 33.239 29.5407 34.1066 29.5407 35.0763C29.5407 36.046 28.7241 36.9136 27.7034 36.9136H15.8969C14.8761 36.9136 14.0595 36.046 14.0595 35.0763C14.0595 34.1066 14.8761 33.239 15.8969 33.239H15.9479V30.568H5.31521ZM5.38326 22.0279H38.217C38.6763 22.0279 38.8975 21.8407 38.8975 21.3474V5.52596C38.8975 4.84547 38.4892 4.43717 37.8087 4.43717H5.79155C5.11106 4.43717 4.68575 4.84547 4.68575 5.52596V21.3474C4.68575 21.8407 4.90691 22.0279 5.38326 22.0279Z" fill="#121212"/>
</svg>
